<svg version="1.2" xmlns="http://www.w3.org/2000/svg" viewBox="0 0 771 255" width="771" height="255">
	<title>AAA1-01(1)-svg</title>
	<style>
		.s0 { fill: #000000 } 
		.s1 { fill: #ffffff } 
	</style>
	<g id="Layer">
		<path id="Layer" fill-rule="evenodd" class="s0" d="m991.5 754.5h-1201v-1201h1201zm-1200-1h1199v-1199h-1199z"/>
	</g>
	<g id="Layer">
		<path id="Layer" fill-rule="evenodd" class="s1" d="m85.9 6.6l64.2 175.3h-27.7q-7-19.8-16.3-27.5-4.2-4-9.5-5.7-5.2-1.6-11.5-1.6-7.2 0-12.7 3-5.5 3-10.2 7.5-4.6 4.5-8.7 9.5-4.1 5-8.5 8.9-4.4 3.9-9.1 5.9-4.8 2-10.8 0.2-5.7-1.5-9-5.1-3.2-3.6-4.4-9-1.1-5.4-0.3-12.3 0.7-6.8 3-14.8 2-7.8 6.6-19 4.6-11.3 10.2-24.2 5.7-12.8 11.4-26.5 5.8-13.6 9.9-25.8 4.1-12.3 6-22.5 1.9-10.3-0.4-16.3h27.8zm27.5 150.5q0 0 0 0zm-51.3-139q-1 10.3-5.2 24.7-4.3 14.3-9.7 29.5-5.3 15.1-10.3 29-5 13.8-7.5 22.8-3.8 14.3-3.3 24.2 0.5 9.8 8.8 12.1 5.2 1.5 10.2-1 5-2.5 10.8-5.9 5.7-3.4 12.7-6.5 7-3.1 16.5-3.1c6.4 0 11.5 1 16 3.1q6.8 3.1 12.3 10.1z"/>
		<path id="Layer" class="s1" d="m304.4 157.9q6.2 10.7 13.1 14.2 6.9 3.5 10.6 0l2.3 2.3q-6 6-13.2 8.7-7.1 2.7-14.1 2-7-0.8-13.5-5.1-6.5-4.4-11.2-12.6-9.8-16.8-18.9-31-9.1-14.3-15-25.4-5.9-11.1-7-19-1.1-7.9 5.4-12.1 6.2-4 13.2-6.5 7-2.5 12.9-6.2 5.9-3.6 9.8-9.5 3.8-5.8 3.8-16.6c0-7.1-1.6-12.7-4.8-17.2q-4.9-6.8-12.7-10.5-7.7-3.8-17.1-5.3-9.4-1.5-18.6-1.5c-6.2 0-11.4 0.2-16.3 0.6q-7.2 0.7-14.5 1.2v173.5h-26v-175.3q8.3 0 15-0.5 6.8-0.5 13.4-1.1 6.6-0.6 13.4-1.1 6.7-0.5 15-0.5 6.7 0 15.4 0.2 8.6 0.3 17.6 1.4 9 1.1 17.6 3.5 8.6 2.4 15.4 6.5 6.7 4.1 10.9 10.5 4.1 6.4 4.1 15.6 0 9.3-3.9 15.3-3.9 6-10 10-6.1 4-13.5 6.2-7.4 2.3-14.6 3.8-7.3 1.5-13.5 2.7-6.3 1.3-9.8 3.3-3.2 2-2.5 4.1 0.8 2.1 4.5 5.6 3.8 3.5 10 8.6 6.3 5.2 13.9 13 7.7 7.9 16.3 18.7 8.6 10.7 17.1 25.5z"/>
		<path id="Layer" fill-rule="evenodd" class="s1" d="m419.4 6.6l64.2 175.3h-27.7q-7-19.8-16.3-27.5-4.2-4-9.5-5.7-5.2-1.6-11.5-1.6-7.2 0-12.7 3-5.5 3-10.1 7.5-4.7 4.5-8.8 9.5-4.1 5-8.5 8.9-4.4 3.9-9.1 5.9-4.8 2-10.8 0.2-5.7-1.5-9-5.1-3.2-3.6-4.3-9-1.2-5.4-0.4-12.3 0.7-6.8 3-14.8 2-7.8 6.6-19 4.6-11.3 10.2-24.2 5.7-12.8 11.4-26.5 5.8-13.6 9.9-25.8 4.1-12.3 6-22.5 1.9-10.3-0.4-16.3h27.8zm27.5 150.5q0 0 0 0zm-51.3-139q-1 10.3-5.2 24.7-4.3 14.3-9.6 29.5-5.4 15.1-10.4 29-5 13.8-7.5 22.8-3.8 14.3-3.3 24.2 0.5 9.8 8.8 12.1 5.2 1.5 10.2-1 5-2.5 10.8-5.9 5.7-3.4 12.7-6.5 7-3.1 16.5-3.1c6.4 0 11.5 1 16 3.1q6.8 3.1 12.3 10.1z"/>
		<path id="Layer" class="s1" d="m569.1 181.9h-26v-71l-77.2-104.3h32.5l68.7 93 67.8-93h4l-69.8 95.8z"/>
		<path id="Layer" fill-rule="evenodd" class="s1" d="m703.9 6.6l64.2 175.3h-27.7q-7-19.8-16.3-27.5-4.2-4-9.5-5.7-5.2-1.6-11.5-1.6-7.2 0-12.7 3-5.5 3-10.1 7.5-4.7 4.5-8.8 9.5-4.1 5-8.5 8.9-4.4 3.9-9.1 5.9-4.8 2-10.8 0.2-5.7-1.5-9-5.1-3.2-3.6-4.3-9-1.2-5.4-0.4-12.3 0.7-6.8 3-14.8 2-7.8 6.6-19 4.6-11.3 10.2-24.2 5.7-12.8 11.4-26.5 5.8-13.6 9.9-25.8 4.1-12.3 6-22.5 1.9-10.3-0.4-16.3h27.8zm27.5 150.5q0 0 0 0zm-51.3-139q-1 10.3-5.2 24.7-4.3 14.3-9.6 29.5-5.4 15.1-10.4 29-5 13.8-7.5 22.8-3.8 14.3-3.3 24.2 0.5 9.8 8.8 12.1 5.2 1.5 10.2-1 5-2.5 10.8-5.9 5.7-3.4 12.7-6.5 7-3.1 16.5-3.1c6.4 0 11.5 1 16 3.1q6.8 3.1 12.3 10.1z"/>
	</g>
	<g id="Layer">
		<path id="Layer" fill-rule="evenodd" class="s1" d="m349.7 248.6v-1.6q1.8-0.1 3-0.5 1.3-0.3 1.3-0.9 0-0.2-0.1-0.5 0-0.3-0.1-0.5l-2.8-7.5h-11.6q-0.7 1.7-1.1 2.9-0.4 1.2-0.8 2.3-0.3 1-0.4 1.6-0.1 0.6-0.1 1 0 1 1.5 1.5 1.5 0.5 3.3 0.6v1.6h-12.5v-1.6q0.6-0.1 1.5-0.3 0.9-0.2 1.5-0.6 0.9-0.6 1.5-1.3 0.5-0.7 1-1.9 2.5-6.3 5.5-14.1 3-7.8 5.4-13.9h1.9l11.1 28.7q0.3 0.9 0.8 1.5 0.4 0.6 1.2 1.1 0.5 0.3 1.4 0.5 0.9 0.3 1.5 0.3v1.7zm0.4-13.6l-5-12.9-5 12.9c0 0 10 0 10 0z"/>
		<path id="Layer" fill-rule="evenodd" class="s1" d="m397.1 248.6h-8.9q-3-4.6-5.4-8-2.4-3.4-5.2-7h-3.4v10.5q0 0.9 0.2 1.5 0.3 0.6 1.1 0.9 0.4 0.2 1.5 0.3 1.1 0.2 1.8 0.2v1.6h-14.1v-1.6q0.6-0.1 1.7-0.2 1-0.1 1.5-0.3 0.7-0.3 1-0.9 0.3-0.6 0.3-1.5v-24q0-0.8-0.2-1.5-0.3-0.6-1.1-0.9-0.6-0.2-1.6-0.4-0.9-0.2-1.6-0.2v-1.7h15.4q2.1 0 4 0.4 1.8 0.5 3.3 1.4 1.5 1 2.3 2.5 0.9 1.5 0.9 3.6 0 1.9-0.6 3.4-0.6 1.5-1.7 2.6-1.1 1-2.5 1.7-1.5 0.8-3.3 1.3 2.4 3.2 4.1 5.4 1.6 2.3 4 5.4 1 1.5 1.8 2.1 0.9 0.7 1.7 1.1 0.6 0.3 1.5 0.5 0.9 0.1 1.5 0.2v1.6zm-12.3-24.7q0-3.1-1.7-4.8-1.8-1.8-4.9-1.8h-4v14.2h3.1q3.2 0 5.4-2 2.1-2.1 2.1-5.7z"/>
		<path id="Layer" class="s1" d="m425.5 224.4h-1.7q-0.2-0.8-0.7-2-0.6-1.1-1.3-2.2-0.7-1.1-1.5-1.9-0.8-0.8-1.6-0.9-0.7-0.1-1.8-0.1-1.1-0.1-2.1-0.1h-1.3v26.6q0 0.8 0.3 1.4 0.3 0.7 1.1 1 0.5 0.2 1.8 0.5 1.4 0.3 2.1 0.3v1.6h-15.7v-1.6q0.7-0.1 2-0.2 1.4-0.1 1.9-0.4 0.7-0.3 1.1-0.8 0.4-0.6 0.4-1.6v-26.8h-1.4q-0.7 0-1.8 0.1-1.1 0-2 0.1-0.8 0.1-1.7 0.9-0.8 0.9-1.5 1.9-0.7 1.1-1.2 2.3-0.6 1.2-0.8 1.9h-1.6v-9h29v9z"/>
		<path id="Layer" class="s1" d="m448.8 233.4q1.1 1.2 1.6 2.6 0.5 1.4 0.5 3.2 0 4.4-3.3 7.3-3.3 2.9-8.1 2.9-2.2 0-4.4-0.7-2.3-0.7-3.9-1.7l-1 1.7h-1.9l-0.3-11.4h1.9q0.6 2.1 1.4 3.8 0.7 1.7 2 3.2 1.3 1.4 2.9 2.2 1.6 0.8 3.8 0.8 1.6 0 2.8-0.4 1.2-0.4 2-1.2 0.7-0.8 1.1-1.8 0.3-1.1 0.3-2.4 0-2-1.1-3.8-1.1-1.7-3.3-2.6-1.6-0.6-3.5-1.3-2-0.8-3.4-1.4-2.8-1.3-4.4-3.3-1.6-2.1-1.6-5.4 0-1.9 0.8-3.5 0.8-1.7 2.2-3 1.4-1.2 3.2-1.9 1.9-0.6 3.9-0.7 2.3 0 4.1 0.8 1.8 0.7 3.3 1.6l1-1.6h1.9l0.2 11h-1.9q-0.6-1.9-1.2-3.6-0.7-1.7-1.7-3.1-1-1.4-2.4-2.2-1.5-0.8-3.6-0.8-2.2 0-3.8 1.4-1.6 1.4-1.6 3.5c0 1.4 0.4 2.6 1 3.6q1 1.4 3 2.3 1.7 0.8 3.3 1.4 1.7 0.6 3.2 1.3 1.4 0.6 2.7 1.4 1.3 0.8 2.3 1.8z"/>
	</g>
</svg>