<?xml version="1.0" encoding="UTF-8"?>
<svg id="Layer_1" data-name="Layer 1" xmlns="http://www.w3.org/2000/svg" viewBox="0 0 180 180">
  <defs>
    <style>
      .cls-1 {
        fill: #fff;
      }

      .cls-1, .cls-2 {
        stroke-width: 0px;
      }

      .cls-2 {
        fill: #143429;
      }
    </style>
  </defs>
  <circle class="cls-2" cx="90" cy="90" r="90"/>
  <path class="cls-1" d="M96.41,23.56l43.69,119.17h-18.87c-3.17-8.95-6.86-15.19-11.05-18.7-1.93-1.81-4.08-3.09-6.46-3.83-2.38-.74-4.99-1.1-7.82-1.1-3.29,0-6.18.68-8.67,2.04-2.49,1.36-4.79,3.06-6.88,5.1-2.1,2.04-4.08,4.19-5.95,6.46-1.87,2.27-3.8,4.28-5.78,6.04s-4.05,3.09-6.21,4c-2.15.91-4.59.96-7.31.17-2.61-.68-4.65-1.84-6.12-3.49-1.47-1.64-2.46-3.68-2.97-6.12s-.6-5.21-.26-8.33c.34-3.12,1.02-6.49,2.04-10.11.91-3.51,2.41-7.82,4.51-12.92s4.42-10.57,6.97-16.41c2.55-5.84,5.13-11.84,7.73-18.02,2.61-6.18,4.85-12.04,6.72-17.59,1.87-5.55,3.23-10.65,4.08-15.3s.76-8.33-.26-11.05h18.87ZM115.11,125.9L80.26,31.38c-.46,4.65-1.64,10.23-3.57,16.75s-4.11,13.2-6.54,20.06c-2.44,6.86-4.79,13.43-7.05,19.72-2.27,6.29-3.97,11.47-5.1,15.55-1.7,6.46-2.44,11.93-2.21,16.41s2.21,7.22,5.95,8.25c2.38.68,4.7.45,6.97-.68,2.27-1.13,4.7-2.47,7.31-4s5.5-3,8.67-4.42,6.91-2.12,11.22-2.12,7.82.71,10.88,2.12c3.06,1.42,5.84,3.71,8.33,6.88h-.01Z"/>
  <rect class="cls-2" x="34.44" y="66.71" width="58.86" height="17.52"/>
  <g>
    <path class="cls-1" d="M35.64,78.63h.08c.1,0,.18-.03.26-.08s.13-.12.17-.22l1.98-5.21h.1l1.95,5.23c.03.09.09.16.17.22.08.05.17.08.26.08h.08v.06h-1.9v-.06h.16c.1,0,.16-.03.2-.08s.04-.12,0-.22l-.3-.79h-2.34l-.3.77c-.04.09-.04.16,0,.22.04.05.11.08.2.08h.16v.08h-.97v-.08h.04ZM36.56,77.49h2.28l-1.13-3.03s-1.15,3.03-1.15,3.03Z"/>
    <path class="cls-1" d="M40.92,73.21v-.08h2.95c.24,0,.46.04.66.12s.37.19.5.33c.14.14.25.32.32.52.08.2.12.42.12.67s-.04.46-.12.66-.19.37-.32.5c-.14.14-.31.25-.5.32-.2.08-.42.12-.66.12h-.84l1.17.28,1.1,1.72c.05.08.12.15.21.2.09.05.18.08.28.08h.07v.08h-1.48l-1.5-2.35h-.61v1.95c0,.1.03.17.09.23.06.06.13.09.22.09h.08v.08h-1.75v-.08h.08c.1,0,.17-.03.23-.09s.09-.14.09-.23v-4.78c0-.1-.03-.17-.09-.23s-.14-.09-.23-.09h-.08v-.02ZM42.98,76.28c.23,0,.44-.04.62-.11.19-.07.35-.18.48-.31.13-.14.24-.3.31-.49.07-.19.11-.4.11-.64s-.04-.44-.11-.62-.18-.35-.31-.48-.29-.24-.48-.31-.39-.11-.62-.11h-.7v3.07h.7Z"/>
    <path class="cls-1" d="M45.95,78.63h.08c.1,0,.18-.03.26-.08s.13-.12.17-.22l1.98-5.21h.1l1.95,5.23c.03.09.09.16.17.22.08.05.17.08.26.08h.08v.06h-1.9v-.06h.16c.1,0,.16-.03.2-.08s.04-.12,0-.22l-.3-.79h-2.34l-.3.77c-.04.09-.04.16,0,.22.04.05.11.08.2.08h.16v.08h-.97v-.08h.04ZM46.87,77.49h2.28l-1.13-3.03s-1.15,3.03-1.15,3.03Z"/>
    <path class="cls-1" d="M52.04,73.13v.08h-.16c-.09,0-.15.02-.18.07s-.02.11.02.2l1.38,2.34,1.38-2.34c.05-.09.06-.15.03-.2-.03-.05-.09-.07-.19-.07h-.16v-.08h.97v.08h-.08c-.09,0-.18.02-.27.07s-.16.11-.2.2l-1.42,2.4v2.43c0,.1.03.17.09.23.06.06.14.09.23.09h.08v.08h-1.76v-.08h.08c.1,0,.17-.03.23-.09s.09-.14.09-.23v-2.14l-1.58-2.7c-.05-.09-.12-.15-.2-.2-.09-.05-.18-.07-.28-.07h-.08v-.08h1.98Z"/>
    <path class="cls-1" d="M54.21,78.63h.08c.1,0,.18-.03.26-.08.08-.05.13-.12.17-.22l1.98-5.21h.1l1.95,5.23c.03.09.09.16.17.22.08.05.17.08.26.08h.08v.06h-1.9v-.06h.16c.1,0,.16-.03.2-.08s.04-.12,0-.22l-.3-.79h-2.34l-.3.77c-.04.09-.04.16,0,.22.04.05.11.08.2.08h.16v.08h-.97v-.08h.04ZM55.13,77.49h2.28l-1.13-3.03s-1.15,3.03-1.15,3.03Z"/>
    <path class="cls-1" d="M62.19,78.63h.08c.1,0,.18-.03.26-.08.08-.05.13-.12.17-.22l1.98-5.21h.1l1.95,5.23c.03.09.09.16.17.22.08.05.17.08.26.08h.08v.06h-1.9v-.06h.16c.1,0,.16-.03.2-.08s.04-.12,0-.22l-.3-.79h-2.34l-.3.77c-.04.09-.04.16,0,.22.04.05.11.08.2.08h.16v.08h-.97v-.08h.04ZM63.11,77.49h2.28l-1.13-3.03s-1.15,3.03-1.15,3.03Z"/>
    <path class="cls-1" d="M67.47,73.21v-.08h2.95c.24,0,.46.04.66.12s.37.19.5.33c.14.14.25.32.32.52.08.2.12.42.12.67s-.04.46-.12.66-.19.37-.32.5c-.14.14-.31.25-.5.32-.2.08-.42.12-.66.12h-.84l1.17.28,1.1,1.72c.05.08.12.15.21.2.09.05.18.08.28.08h.07v.08h-1.48l-1.5-2.35h-.61v1.95c0,.1.03.17.09.23.06.06.13.09.22.09h.08v.08h-1.75v-.08h.08c.1,0,.17-.03.23-.09s.09-.14.09-.23v-4.78c0-.1-.03-.17-.09-.23s-.14-.09-.23-.09h-.08v-.02ZM69.54,76.28c.23,0,.44-.04.62-.11.19-.07.35-.18.48-.31.13-.14.24-.3.31-.49.07-.19.11-.4.11-.64s-.04-.44-.11-.62-.18-.35-.31-.48-.29-.24-.48-.31-.39-.11-.62-.11h-.7v3.07h.7Z"/>
    <path class="cls-1" d="M72.58,74.4l.24-1.27h4.63l.23,1.27h-.08v-.06c-.03-.17-.08-.33-.16-.47-.08-.14-.19-.26-.31-.36-.12-.1-.27-.17-.42-.23s-.32-.08-.5-.08h-.6v5.1c0,.1.03.17.09.23s.14.09.23.09h.08v.08h-1.76v-.08h.08c.1,0,.17-.03.23-.09s.09-.14.09-.23v-5.1h-.59c-.18,0-.34.03-.5.08s-.3.13-.42.23-.23.22-.31.36-.14.3-.16.47v.06h-.09Z"/>
    <path class="cls-1" d="M81.12,75.15c0-.31-.03-.59-.08-.84s-.13-.46-.24-.64-.24-.31-.4-.4c-.16-.09-.34-.14-.55-.14-.27,0-.49.07-.66.22s-.25.33-.25.55.08.41.24.58.36.33.6.49c.24.15.5.31.78.46s.54.32.78.5c.24.18.44.39.6.62s.24.5.24.81c0,.28-.07.51-.2.69s-.29.33-.49.44-.41.19-.65.24c-.23.04-.46.07-.67.07-.45,0-.87-.09-1.26-.28-.38-.19-.7-.45-.95-.79l.98-1.02c0,.27.03.53.09.78s.15.46.26.64c.11.18.25.33.4.44s.33.16.52.16c.12,0,.25-.02.39-.07s.26-.12.37-.2c.11-.09.21-.2.28-.32s.11-.27.11-.43c0-.24-.08-.45-.24-.63s-.36-.35-.6-.51c-.24-.16-.5-.31-.78-.46s-.54-.3-.78-.47-.44-.35-.6-.56c-.16-.2-.24-.44-.24-.71,0-.19.04-.37.14-.53s.22-.3.38-.41.35-.2.57-.26c.22-.06.47-.09.73-.09.47,0,.89.09,1.25.28s.66.45.91.78l-.98,1.03v-.02Z"/>
  </g>
</svg>